<svg width="17" height="17" xmlns="http://www.w3.org/2000/svg"><path d="M6.7 6.6c-.2 0-.5 0-.5.3l-1.9 6a.4.4 0 0 0 .9.3l1.8-6c0-.3 0-.5-.3-.6zm2.3 0c-.3 0-.5 0-.6.3l-1.8 6a.4.4 0 0 0 .8.3l1.8-6c0-.3 0-.5-.3-.6z"/><path d="M16.6 0H.4C.2 0 0 .2 0 .4v16.2c0 .2.2.4.4.4h16.2c.2 0 .4-.2.4-.4V.4c0-.2-.2-.4-.4-.4zM3.5.9h10v1.7h-10V1zM.9.9h1.7v1.7H1V1zM16 16H1V3.5h15V16zm0-13.5h-1.7V1H16v1.7z"/><circle cx="93.9" cy="245.1" r="13.1" transform="scale(.0332)"/><circle cx="93.9" cy="360.6" r="13.1" transform="scale(.0332)"/><path d="M14.3 12.6h-4.1a.4.4 0 0 0 0 1h4a.4.4 0 0 0 0-1z"/></svg>