<svg width="15" height="14" xmlns="http://www.w3.org/2000/svg"><g fill-rule="evenodd"><path d="M14.7 0H.3C0 0 0 .1 0 .3v13.4c0 .2.1.3.3.3h14.4c.2 0 .3-.1.3-.3V.3c0-.2-.1-.3-.3-.3zm-.2 13.4H.5V.6h14v12.8z"/><path d="M4.1 6.7C5 6.7 5.6 6 5.6 5c0-.9-.7-1.7-1.5-1.7S2.7 4.1 2.7 5c0 1 .6 1.7 1.4 1.7zm0-2.7c.5 0 1 .4 1 1s-.5 1.1-1 1.1-.9-.5-.9-1c0-.7.4-1.1 1-1.1zm-2.3 8.2L2 12l4.2-4.4L8.9 11h.3v-.5L8 9l2.4-3 2.9 3c0 .2.2.2.3 0 .1 0 .1-.3 0-.4l-3-3.3-.3-.1h-.1L7.6 8.6 6.4 7.1A.2.2 0 0 0 6 7l-4.4 4.5v.5h.2z"/></g></svg>