<svg width="15" height="15" xmlns="http://www.w3.org/2000/svg"><path d="M14 1a3 3 0 0 0-2.3-1c-.9 0-1.7.3-2.3 1L7 3.2c-.8.8-1.1 2-.9 3h-.7c-.9 0-1.7.3-2.3 1L1 9.3A3.3 3.3 0 0 0 5.5 14l2.3-2.3c.8-.8 1.1-2 .9-3h.7c.9 0 1.7-.3 2.3-.9L14 5.5A3.3 3.3 0 0 0 14 1zM7 11l-2.3 2.3c-.4.4-1 .6-1.6.6a2 2 0 0 1-1.5-.6c-1-1-1-2.3 0-3.2l2.2-2.3a2.2 2.2 0 0 1 2.8-.3l-2 2a.5.5 0 1 0 .8.6l2-1.9c.5.9.4 2-.4 2.8zm6.2-6.2L11 7.1a2.2 2.2 0 0 1-2.8.3l2-2a.5.5 0 1 0-.8-.6l-1.9 2c-.5-1-.4-2.1.3-2.9l2.3-2.2a2 2 0 0 1 1.6-.7 2.2 2.2 0 0 1 2.2 2.2c0 .7-.2 1.2-.6 1.6z" fill-rule="evenodd"/></svg>