<svg width="13" height="13" xmlns="http://www.w3.org/2000/svg"><path d="M4.2 1.5h8.2c.3 0 .6-.4.6-.8s-.3-.7-.6-.7H4.2c-.3 0-.6.3-.6.7 0 .4.3.8.6.8zm8.2 4.3H4.2c-.3 0-.6.3-.6.7 0 .4.3.7.6.7h8.2c.3 0 .6-.3.6-.7 0-.4-.3-.7-.6-.7zm0 5.7H4.2c-.3 0-.6.4-.6.8s.3.7.6.7h8.2c.3 0 .6-.3.6-.7 0-.4-.3-.8-.6-.8zM.8 1.2v1.9c0 .1.1.3.3.3.2 0 .3-.2.3-.3V.4c0-.2-.1-.4-.3-.4C.9 0 .9.1.8.2L.6.6.5 1c0 .2.1.3.3.3zm-.4 7h1.2l.2-.4c0-.2 0-.3-.2-.3h-1l.5-.5c.3-.2.7-.6.7-1.2s-.4-1-.9-1c-.4 0-.8.4-.8 1 0 .2.2.3.3.3.2 0 .3-.2.3-.3 0-.1 0-.3.2-.3.3 0 .3.3.3.3 0 .3-.3.5-.5.7-.3.2-.7.5-.7 1v.3c0 .3.2.4.4.4zm1.4 2.3c0-.5-.3-.9-.8-.9-.7 0-.9.6-.9.9 0 .3.2.4.3.4.2 0 .3-.2.3-.4 0 0 0-.2.2-.2s.2 0 .2.3c0 .2 0 .3-.2.3-.1 0-.3.1-.3.3 0 .2.2.4.3.4.3 0 .3 0 .3.2v.1c0 .3 0 .4-.3.4-.2 0-.2-.2-.2-.2 0-.2-.1-.4-.4-.4-.1 0-.3.2-.3.4 0 .4.4.9 1 .9.5 0 .8-.4.8-1v-.2c0-.2 0-.5-.2-.6l.2-.7z" fill-rule="evenodd"/></svg>