<svg width="16" height="14" xmlns="http://www.w3.org/2000/svg"><path d="M1.7 3.4c1 0 1.7-.7 1.7-1.7a1.7 1.7 0 0 0-3.4 0c0 1 .8 1.7 1.7 1.7zm0-2.6c.5 0 1 .4 1 1a1 1 0 0 1-1.9 0c0-.6.4-1 1-1zm0 7.9c1 0 1.7-.8 1.7-1.7 0-1-.7-1.7-1.7-1.7S0 6 0 7s.8 1.7 1.7 1.7zm0-2.6c.5 0 1 .4 1 .9a1 1 0 0 1-2 0c0-.5.4-1 1-1zm0 7.9c1 0 1.7-.8 1.7-1.7 0-1-.7-1.7-1.7-1.7S0 11.3 0 12.3.8 14 1.7 14zm0-2.6c.5 0 1 .4 1 .9s-.5.9-1 .9a1 1 0 0 1-.9-1c0-.4.4-.8 1-.8zm4-9.3h9.9c.2 0 .4-.2.4-.4s-.2-.4-.4-.4H5.7c-.2 0-.4.2-.4.4s.2.4.4.4zm0 5.3h9.9c.2 0 .4-.2.4-.4s-.2-.4-.4-.4H5.7c-.2 0-.4.2-.4.4s.2.4.4.4zm0 5.3h9.9c.2 0 .4-.2.4-.4s-.2-.4-.4-.4H5.7c-.2 0-.4.2-.4.4s.2.4.4.4z" fill-rule="evenodd"/></svg>