<svg width="13" height="15" xmlns="http://www.w3.org/2000/svg"><path d="M1 3c.2 1.1.4 1.4.4 2.6C1.4 6.4 0 7 0 7v1s1.4.6 1.4 1.4c0 1.2-.2 1.5-.4 2.7-.3 2 .8 2.9 1.7 2.9h2v-1.9s-1.7.2-1.7-1c0-.8.2-.8.3-2.6.1-.9-.4-1.5-1-2 .6-.5 1.1-1 1-1.9L3 3c0-1.1 1.6-1 1.6-1V0h-2C1.7 0 .8 1 1 3zm11 0c-.2 1.1-.4 1.4-.4 2.6C11.6 6.4 13 7 13 7v1s-1.4.6-1.4 1.4c0 1.2.2 1.5.4 2.7.3 2-.8 2.9-1.7 2.9h-2v-1.9s1.7.2 1.7-1c0-.8-.2-.8-.3-2.6-.1-.9.4-1.5 1-2-.6-.5-1.1-1-1-1.9L10 3c0-1.1-1.6-1-1.6-1V0h2c1 0 1.9 1 1.6 3z" fill="#444" fill-rule="evenodd"/></svg>