<svg width="15" height="13" xmlns="http://www.w3.org/2000/svg"><path d="M4 6h6.3l-.8-.5L8 5c-1.2-.4-2-.8-2.3-1.1C5.3 3.5 5 3 5 2.7c0-.5.2-1 .6-1.2C6 1 6.6 1 7.2 1c.7 0 1.3.2 1.8.7.3.3.5 1 .8 1.8h.9v-.4a15.2 15.2 0 0 0-.2-2.5A12 12 0 0 0 7.6 0C6.2 0 5.1.4 4.3 1a3.5 3.5 0 0 0-.7 4.3L4 6zm4.3 2.1c.6.3 1 .4 1.1.6.5.4.7.9.7 1.3s-.1.8-.4 1.1a2 2 0 0 1-1 .8l-1.2.2a3.1 3.1 0 0 1-2-.7l-.6-.8-.1-.2a57.5 57.5 0 0 0-.5-1h-.8v2.7l.6.2 1.2.4L7 13c.6 0 1.2 0 1.6-.2.5-.1.9-.3 1.3-.6l1-.6.5-1a4.7 4.7 0 0 0 .3-2.5H8.3zM15 6.6l-.3-.1H.1l-.1.3v.7h15v-.9z" fill-rule="evenodd"/></svg>